<svg width="95" height="95" viewBox="0 0 95 95" fill="none" xmlns="http://www.w3.org/2000/svg">
<path d="M71.25 87.0833H23.75C19.3778 87.0833 15.8333 83.5389 15.8333 79.1666V15.8333C15.8333 11.461 19.3778 7.91663 23.75 7.91663H51.4583C51.5015 7.9185 51.5441 7.92649 51.585 7.94038C51.6237 7.95232 51.6635 7.96028 51.7038 7.96413C52.0528 7.9865 52.3975 8.05437 52.729 8.166L52.8398 8.20163C52.9295 8.23203 53.0168 8.26908 53.1011 8.31246C53.5323 8.50414 53.9252 8.77236 54.2608 9.10413L78.0108 32.8541C78.3426 33.1897 78.6108 33.5827 78.8025 34.0139C78.8421 34.101 78.8698 34.192 78.9015 34.2831L78.9371 34.386C79.0476 34.7161 79.1128 35.0596 79.1311 35.4073C79.1372 35.4436 79.1465 35.4794 79.1588 35.5141C79.1658 35.5506 79.1684 35.5878 79.1672 35.625V79.1666C79.1672 83.5389 75.6223 87.0833 71.25 87.0833ZM23.75 15.8333V79.1666H71.25V39.5833H51.4583C49.2722 39.5833 47.5 37.8111 47.5 35.625V15.8333H23.75ZM55.4167 21.4304V31.6666H65.6529L55.4167 21.4304Z" fill="#73020C"/>
</svg>
