<svg xmlns="http://www.w3.org/2000/svg" width="257" height="118" fill="none" viewBox="0 0 257 118"><path fill="#F2F2F2" stroke="#F2F2F2" stroke-width=".077" d="M120.723 18.2687C120.788 18.1998 121.291 17.6403 121.841 17.0253C123.65 15.0031 125.222 13.4797 126.922 12.1033C130.639 9.0918 134.609 7.04242 138.396 6.18036C140.975 5.5931 142.325 5.51025 147.131 5.64454C151.911 5.77813 156.194 6.15381 160.072 6.77945C160.294 6.81527 160.483 6.84458 160.492 6.84458C160.502 6.84458 160.51 6.87582 160.51 6.91399C160.51 6.9721 160.495 6.98029 160.419 6.96427C159.991 6.87405 157.902 6.56353 157.038 6.46182C152.961 5.98167 144.881 5.59082 142.175 5.74282C141.33 5.7903 140.687 5.89696 140.766 5.97673C140.835 6.04674 141.943 6.11348 143.996 6.17126L144.821 6.19448L143.452 6.21997C141.002 6.26555 139.873 6.37095 138.528 6.67946C137.469 6.92254 135.693 7.52915 134.365 8.10176C131.349 9.40198 127.945 11.8063 124.614 14.9891C123.89 15.681 122.089 17.4917 121.649 17.9706L121.318 18.3319L121.29 18.1876C121.248 17.9715 121.155 17.9763 120.879 18.209C120.625 18.4225 120.555 18.4495 120.724 18.2687H120.723Z"/><path fill="#F2F2F2" stroke="#F2F2F2" stroke-width=".617" d="M140.02 1.00219C133.691 0.987343 133.171 1.02323 131.31 1.60795C130.221 1.94996 128.459 2.7019 127.394 3.27843C125.442 4.33526 117.121 9.85004 110.366 14.5643C104.504 18.6544 100.457 20.5249 96.1869 21.118C95.0886 21.2705 91.1695 21.5807 87.4771 21.8073C58.7713 23.5686 39.9467 26.8997 21.7699 33.434C19.6649 34.1907 17.7348 34.874 17.4807 34.9526C17.11 35.0673 17.019 35.4022 17.019 36.6475V38.1991L20.5162 36.5126C30.1637 31.861 43.0158 28.1369 55.9522 26.2442C69.8075 24.2169 88.288 23.8549 104.369 25.2959L108.97 25.7084L110.478 24.1982L111.987 22.6881L113.749 23.2812C115.658 23.924 116.044 24.3663 115.361 25.1297C114.951 25.5888 114.953 25.6332 115.396 25.8063C116.475 26.2283 126.149 27.037 133.31 27.3038C142.344 27.6405 161.164 27.2615 167.207 26.6213C175.501 25.7426 186.109 23.5685 189.294 22.095C191.183 21.2208 192.283 20.1987 192.283 19.3159C192.283 15.6744 174.029 8.90729 157.969 6.59493C153.887 6.00719 143.69 5.52292 141.472 5.81115C139.911 6.01393 140.67 6.07676 146.355 6.21864C156.796 6.47918 164.461 8.00557 177.105 12.3404C187.984 16.0702 191.273 18.2087 188.961 20.049C186.477 22.0257 174.478 24.4989 161.532 25.7025C154.27 26.3777 129.536 26.246 124.899 25.5076C123.624 25.3045 123.77 24.8162 125.178 24.5728C126.634 24.3214 127.375 23.7869 128.664 22.0604L129.747 20.6084L129.011 20.3097C128.606 20.1456 126.7 19.6959 124.777 19.3108C122.277 18.8103 121.28 18.5033 121.28 18.2351C121.28 17.9375 121.18 17.9521 120.796 18.3035C120.427 18.6415 120.005 18.7107 119.014 18.5971C116.648 18.3257 116.001 18.1882 116.001 17.9567C116.001 17.6352 124.326 10.4076 127.351 8.10342C128.73 7.0527 131.165 5.52343 132.762 4.70509C136.395 2.84337 137.94 2.60136 144.64 2.84478C165.732 3.61121 187.465 8.51057 206.22 16.7275C211.753 19.1516 218.414 22.4029 218.414 22.6796C218.414 22.7522 216.167 22.8785 214.354 22.9943C214.468 23.1179 214.582 23.2413 214.694 23.3655C215.035 23.7573 215.353 24.1675 215.662 24.5855C215.943 24.9686 216.225 25.3513 216.505 25.7354C216.768 26.104 217.028 26.4748 217.288 26.8457C217.525 27.1769 217.758 27.5115 217.974 27.8573C218.113 28.0769 218.238 28.3044 218.359 28.5339C221.661 28.9522 225.326 29.4507 231.611 30.3968C238.658 31.4576 240.39 31.6266 245.504 31.7525C250.422 31.8737 251.666 31.8237 253.377 31.4387C254.495 31.1871 255.454 31.0267 255.508 31.0818C255.739 31.315 254.832 36.9413 254.312 38.502C252.716 43.2956 250.013 46.6583 245.494 49.4714C242.49 51.3418 239.596 52.4169 237.099 52.5905C234.048 52.8026 233.577 52.3641 232.243 48.0633C230.84 43.5383 228.767 40.1734 225.35 36.872C223.631 35.2105 221.89 34.0846 219.965 33.1185C220.035 33.4885 220.09 33.8614 220.14 34.2346C220.201 34.6826 220.237 35.1337 220.27 35.5845C220.291 35.8663 220.306 36.1486 220.321 36.4307C221.956 37.2865 223.488 38.285 224.879 39.6173C228.556 43.1377 230.345 46.1179 231.442 50.5438C231.888 52.3437 232.443 57.0038 232.277 57.5471C232.223 57.7218 232.104 59.1457 232.012 60.7109L231.843 63.5566L232.585 63.7195C234.974 64.2443 239.733 61.4372 244.749 56.544C248.203 53.1755 250.258 50.4663 252.18 46.7489C254.748 41.7805 255.936 37.1166 255.993 31.7829C256.023 29.0059 255.967 28.584 255.474 27.9113C254.658 26.7969 253.427 26.5757 251.017 27.1115C248.441 27.6841 242.549 27.7045 239.413 27.1511C236.103 26.5672 232.27 25.2513 223.297 21.6183C196.011 10.5705 174.843 4.38709 156.386 2.07366C149.496 1.21013 146.551 1.01752 140.02 1.00219ZM61.6132 31.3493C56.2499 31.1812 53.4634 31.7474 48.7936 33.9537C45.9287 35.3071 43.7506 36.8384 41.2386 39.2663C38.582 41.834 36.8798 44.1258 35.2574 47.3167C32.8341 52.0829 31.773 56.6609 31.7804 62.3206C31.7847 65.5554 31.9255 67.2144 32.4776 70.5153L32.6285 71.4163L30.0364 71.2299C25.934 70.9353 21.1254 69.8068 17.4807 68.2821C17.0682 68.1095 17.019 68.2762 17.019 69.8462C17.019 71.9363 16.9649 71.886 20.8522 73.4622C23.9746 74.7282 27.6779 75.7618 30.918 76.2717C32.2016 76.4737 34.2634 76.6506 35.4996 76.6648C38.0878 76.6946 39.4176 76.1748 39.8441 74.9674C40.1275 74.165 40.1027 74.1098 37.64 70.0327C36.8918 68.794 35.9593 66.8108 35.5675 65.6262C34.9002 63.6083 34.8547 63.1687 34.8493 58.6658C34.8437 53.8991 34.8515 53.8377 35.7301 51.2583C38.5185 43.0754 44.6812 37.0647 52.6528 34.7527C55.4757 33.9339 61.0076 33.7377 64.0259 34.3494C66.2843 34.807 68.411 35.6894 70.3934 36.8416C70.4598 36.81 70.5271 36.7794 70.5962 36.7505C70.6174 36.7419 70.6388 36.7337 70.6599 36.7252C70.9762 36.5237 71.2991 36.3314 71.6254 36.1481C72.2607 35.7912 72.821 35.6336 73.2772 35.6208C73.3696 35.6182 73.4575 35.6222 73.5412 35.6309C71.7073 34.2153 69.6854 33.0564 67.4946 32.279C65.4686 31.56 64.7582 31.4478 61.6132 31.3493ZM215.357 31.712C215.219 31.7807 215.062 31.8398 214.886 31.8884C214.879 31.9295 214.889 31.9844 214.883 32.0259C215.038 32.0316 215.192 32.0325 215.347 32.0293C215.392 32.0284 215.434 32.0299 215.478 32.0302C215.464 31.9875 215.451 31.9446 215.437 31.9019C215.414 31.8369 215.381 31.7763 215.357 31.7121L215.357 31.712ZM216.102 34.6716C216.097 34.6723 216.093 34.6728 216.089 34.6732C216.095 34.6751 216.101 34.6765 216.107 34.6783C216.104 34.676 216.103 34.6739 216.102 34.6716V34.6716Z"/><path fill="#F2F2F2" stroke="#F2F2F2" stroke-width=".308" d="M223.068 44.833C222.917 45.2019 222.724 45.5516 222.519 45.8927C222.499 45.9266 222.478 45.9601 222.458 45.9939C222.779 46.3561 223.092 46.7245 223.38 47.1109C224.944 49.206 226.482 52.7741 226.923 55.3284C227.168 56.748 227.201 60.1633 226.985 61.731C226.479 65.4051 224.858 68.7702 222.211 71.6493C220.72 73.2702 218.975 74.8177 217.933 75.4425C216.267 76.4407 214.179 77.2778 212.387 77.7119C212.45 78.1783 212.464 78.6319 212.448 79.077C212.454 79.0759 212.469 79.075 212.475 79.0737C213.667 78.83 215.589 78.1199 217.028 77.3914C222.606 74.5686 226.658 69.2273 228.061 62.8514C228.446 61.1024 228.554 57.2736 228.266 55.595C227.551 51.4349 225.83 47.9085 223.068 44.833V44.833Z"/><path fill="#F2F2F2" stroke="#F2F2F2" stroke-width=".308" d="M58.469 37.8869C57.4478 37.8967 56.4189 37.9873 55.39 38.1653C46.4007 39.72 39.776 46.6683 38.3902 55.9956C38.1597 57.5463 38.1949 60.6818 38.4606 62.2708C38.7449 63.9716 39.5222 66.3519 40.3185 67.9589C42.3717 72.1025 46.1115 75.7414 50.303 77.6738C52.6543 78.7578 54.1016 79.1733 55.9515 79.2946C59.6762 79.5385 62.6169 79.3527 64.4635 78.7563C67.0533 77.9199 69.4333 76.5858 71.5006 74.9125C71.4923 74.9125 71.484 74.9125 71.4755 74.9125C71.248 74.9123 71.02 74.9118 70.7925 74.9116C70.5481 74.9116 70.3044 74.9123 70.06 74.9125C70.0278 74.9125 69.9977 74.9114 69.9695 74.9083C69.9695 74.9083 69.9695 74.9083 69.9695 74.9083C69.9304 74.9191 69.8916 74.931 69.8522 74.9412C69.7687 74.9639 69.6855 74.9862 69.6033 75.0129C69.4565 75.0606 69.3416 75.0586 69.2655 75.0281C67.0652 76.5904 64.774 77.509 62.1555 77.8873C58.719 78.3838 55.3427 78.1469 52.5213 77.2115C51.0466 76.7226 48.505 75.3961 47.3087 74.4907C44.1358 72.0894 41.7606 68.8284 40.5917 65.2684C38.2475 58.1287 39.7538 50.72 44.6186 45.4623C47.7259 42.1038 51.7137 40.0281 56.3353 39.3625C57.8375 39.1461 61.2014 39.2787 62.7497 39.6156C64.122 39.9142 65.4346 40.3775 66.6827 40.9638C66.8364 40.8779 67.0037 40.7953 67.1863 40.7166C67.5146 40.5751 67.8459 40.4405 68.1844 40.326C65.5195 38.8993 62.5537 38.0357 59.4889 37.9038C59.1508 37.8892 58.8116 37.8836 58.4715 37.8869H58.469ZM69.9704 42.5457C69.8535 42.5888 69.736 42.6305 69.6184 42.6714C69.6745 42.7109 69.7353 42.7435 69.791 42.7836C69.8479 42.702 69.9119 42.626 69.9704 42.5457Z"/><path fill="#F2F2F2" stroke="#F2F2F2" stroke-width=".617" d="M15.2704 70.5927C11.1197 67.8787 6.94807 63.2472 4.63601 58.7863C2.28186 54.2442 0.670725 48.3621 1.05729 45.7209C1.44832 43.0492 2.55405 41.826 6.30545 39.9154C8.7438 38.6735 16.4193 35.3003 16.8067 35.3003C16.9235 35.3003 17.019 35.9505 17.019 36.7452V38.1901L14.4847 39.56C10.2899 41.8275 6.76326 44.1533 4.9462 45.8505C3.34175 47.3492 3.21976 47.545 3.09907 48.8156C2.94196 50.4698 3.03319 50.5126 6.72493 50.5169C16.1045 50.5277 22.874 47.1825 25.8995 41.0415C26.4784 39.8666 27.1047 38.4847 27.2912 37.9706C27.9493 36.1579 27.8794 37.7442 27.1949 40.1584C24.6927 48.9833 18.5388 53.3666 7.4482 54.2236C5.88617 54.3443 4.53781 54.5142 4.45181 54.6012C4.1564 54.9001 6.85794 59.6776 8.31551 61.4339C10.1552 63.6507 12.6456 65.692 15.1025 66.9971L17.0133 68.0121L17.0163 69.8146C17.0185 70.8059 16.9781 71.617 16.9281 71.617C16.878 71.617 16.132 71.1561 15.2704 70.5927H15.2704Z"/><path fill="#F2F2F2" stroke="#F2F2F2" d="M16.9117 71.6003C18.1319 72.2955 18.1319 72.2955 18.1319 72.2955L18.0112 68.5293L17.0123 68.0164L16.362 70.2032L16.9117 71.6003Z"/><path fill="#F2F2F2" stroke="#F2F2F2" d="M17.3659 35.0107C16.7212 35.34 16.7212 35.34 16.7212 35.34L16.8492 38.2513L17.1668 38.132L17.3659 35.0107Z"/><path fill="#F2F2F2" stroke="#F2F2F2" stroke-width=".022" d="M201.592 23.4538C201.002 23.6422 200.394 24.2545 200.188 24.8573C200.048 25.2718 200.029 26.0631 200.029 32.5063V39.6937H197.185C195.407 39.6937 194.247 39.7314 194.059 39.7973C193.507 39.9857 193.479 40.1176 193.479 42.5196C193.479 44.9406 193.507 45.0536 194.087 45.2514L194.396 45.355L194.443 49.2831C194.48 52.8533 194.499 53.2866 194.677 54.059C194.986 55.3872 195.22 56.0372 195.865 57.356C196.595 58.8443 197.372 59.8994 198.607 61.0863C200.085 62.5181 201.844 63.5825 203.744 64.2042L204.614 64.4868V67.5389C204.614 69.8844 204.642 70.6663 204.736 70.9018C204.988 71.4953 204.942 71.4858 207.889 71.4858C210.837 71.4858 210.79 71.4953 211.042 70.9018C211.136 70.6663 211.164 69.8844 211.164 67.5389V64.4868L212.034 64.2042C213.934 63.5825 215.693 62.5181 217.171 61.0863C218.406 59.8994 219.183 58.8443 219.913 57.356C220.559 56.0372 220.792 55.3872 221.101 54.059C221.279 53.2866 221.298 52.8533 221.335 49.2831L221.382 45.355L221.691 45.2514C222.271 45.0536 222.299 44.9406 222.299 42.5196C222.299 40.1176 222.271 39.9857 221.719 39.7973C221.532 39.7314 220.371 39.6937 218.594 39.6937H215.749L215.73 32.365L215.702 25.0363L215.459 24.5747C214.626 22.9357 212.287 22.9357 211.454 24.5747L211.211 25.0363L211.183 32.365L211.164 39.6937H207.889H204.614V32.5063C204.614 27.8529 204.577 25.2059 204.521 24.9798C204.184 23.7835 202.799 23.0581 201.592 23.4538ZM202.63 25.3001C202.715 25.3848 202.743 27.1275 202.743 32.5534V39.6937H202.322H201.901V32.5534C201.901 27.1275 201.929 25.3848 202.013 25.3001C202.078 25.2341 202.209 25.187 202.322 25.187C202.434 25.187 202.565 25.2341 202.63 25.3001ZM213.765 25.3001C213.85 25.3848 213.878 27.1275 213.878 32.5534V39.6937H213.457H213.035V32.5534C213.035 27.1275 213.064 25.3848 213.148 25.3001C213.213 25.2341 213.344 25.187 213.457 25.187C213.569 25.187 213.7 25.2341 213.765 25.3001ZM220.521 42.5196V43.4616H219.492C218.322 43.4616 217.995 43.5653 217.808 44.0174C217.667 44.3754 217.751 44.7898 218.042 45.063C218.21 45.2232 218.416 45.2891 218.874 45.3174L219.492 45.3739V48.9158C219.492 52.8062 219.436 53.4561 218.93 54.9727C218.191 57.2053 216.694 59.2776 214.804 60.7C211.819 62.942 207.758 63.5825 204.202 62.3862C200.768 61.2276 197.999 58.4393 196.848 54.9727C196.343 53.4467 196.286 52.8062 196.286 48.8969V45.3456H205.597C215.889 45.3456 215.44 45.3739 215.693 44.7616C215.871 44.3471 215.786 43.9797 215.45 43.6971L215.169 43.4616H205.213H195.257V42.5196V41.5777H207.889H220.521V42.5196ZM209.293 67.2469V69.649H207.889H206.486V67.2469V64.8448H207.889H209.293V67.2469Z"/><path fill="#F2F2F2" stroke="#F2F2F2" stroke-width=".891" d="M211.079 80.084H47.819V74.8323H211.079V80.084Z"/><path fill="#F2F2F2" stroke="#F2F2F2" d="M212.425 77.722C211.031 78.019 211.057 77.9245 211.057 77.9245L211.031 79.3689L212.479 79.0449L212.425 77.722Z"/><path fill="#F2F2F2" stroke="#F2F2F2" d="M212.448 79.0718C211.067 79.3586 211.062 79.3451 211.062 79.3451L211.066 77.9311L212.383 77.7134L212.448 79.0718Z"/><path fill="#F2F2F2" stroke="#F2F2F2" d="M212.366 77.7203C212.57 77.6773 212.56 79.0375 212.56 79.0375L212.418 79.0852L212.11 77.9923L212.366 77.7203Z"/><path fill="#F2F2F2" d="M94.1449 96.2725V98.9713H82.9716V96.2725H94.1449ZM86.3182 117V93.4117C86.3182 92.2242 86.5971 91.2346 87.1548 90.4429C87.7126 89.6513 88.4368 89.0575 89.3274 88.6617C90.218 88.2659 91.1581 88.0679 92.1477 88.0679C92.9304 88.0679 93.5691 88.1309 94.0639 88.2569C94.5587 88.3828 94.9276 88.4998 95.1705 88.6077L94.2528 91.3606C94.0909 91.3066 93.866 91.2391 93.5781 91.1581C93.2992 91.0772 92.9304 91.0367 92.4716 91.0367C91.419 91.0367 90.6589 91.3021 90.1911 91.8329C89.7322 92.3636 89.5028 93.1418 89.5028 94.1674V117H86.3182ZM111.671 108.525V96.2725H114.855V117H111.671V113.491H111.455C110.969 114.544 110.213 115.439 109.188 116.177C108.162 116.905 106.867 117.27 105.301 117.27C104.006 117.27 102.854 116.986 101.847 116.42C100.839 115.844 100.048 114.98 99.4718 113.829C98.896 112.668 98.6081 111.206 98.6081 109.443V96.2725H101.793V109.227C101.793 110.738 102.216 111.944 103.061 112.844C103.916 113.743 105.004 114.193 106.327 114.193C107.119 114.193 107.924 113.991 108.742 113.586C109.57 113.181 110.263 112.56 110.82 111.723C111.387 110.887 111.671 109.821 111.671 108.525ZM129.702 96.2725V98.9713H118.961V96.2725H129.702ZM122.092 91.3066H125.276V111.062C125.276 111.962 125.407 112.637 125.668 113.086C125.938 113.527 126.279 113.824 126.693 113.977C127.116 114.121 127.561 114.193 128.029 114.193C128.38 114.193 128.668 114.175 128.893 114.139C129.118 114.094 129.298 114.058 129.433 114.031L130.08 116.892C129.864 116.973 129.563 117.054 129.176 117.135C128.789 117.225 128.299 117.27 127.705 117.27C126.806 117.27 125.924 117.076 125.06 116.689C124.206 116.303 123.495 115.713 122.928 114.922C122.371 114.13 122.092 113.131 122.092 111.926V91.3066ZM147.555 108.525V96.2725H150.74V117H147.555V113.491H147.339C146.854 114.544 146.098 115.439 145.072 116.177C144.047 116.905 142.751 117.27 141.186 117.27C139.891 117.27 138.739 116.986 137.732 116.42C136.724 115.844 135.932 114.98 135.357 113.829C134.781 112.668 134.493 111.206 134.493 109.443V96.2725H137.678V109.227C137.678 110.738 138.1 111.944 138.946 112.844C139.801 113.743 140.889 114.193 142.212 114.193C143.003 114.193 143.808 113.991 144.627 113.586C145.455 113.181 146.147 112.56 146.705 111.723C147.272 110.887 147.555 109.821 147.555 108.525ZM156.573 117V96.2725H159.65V99.4032H159.866C160.243 98.3776 160.927 97.5454 161.917 96.9067C162.906 96.268 164.022 95.9486 165.263 95.9486C165.497 95.9486 165.79 95.9531 166.14 95.9621C166.491 95.9711 166.757 95.9846 166.937 96.0026V99.2412C166.829 99.2142 166.581 99.1738 166.194 99.1198C165.817 99.0568 165.416 99.0253 164.993 99.0253C163.986 99.0253 163.086 99.2367 162.295 99.6596C161.512 100.073 160.891 100.649 160.432 101.387C159.983 102.116 159.758 102.948 159.758 103.883V117H156.573ZM178.771 117.432C176.774 117.432 175.051 116.991 173.603 116.109C172.163 115.219 171.052 113.977 170.27 112.385C169.496 110.783 169.109 108.921 169.109 106.798C169.109 104.675 169.496 102.804 170.27 101.184C171.052 99.5561 172.141 98.2876 173.535 97.379C174.939 96.4614 176.576 96.0026 178.447 96.0026C179.527 96.0026 180.593 96.1825 181.645 96.5424C182.698 96.9022 183.656 97.487 184.52 98.2966C185.383 99.0973 186.072 100.159 186.584 101.481C187.097 102.804 187.354 104.432 187.354 106.366V107.716H171.376V104.963H184.115C184.115 103.793 183.881 102.75 183.413 101.832C182.954 100.915 182.298 100.19 181.443 99.6596C180.597 99.1288 179.599 98.8634 178.447 98.8634C177.179 98.8634 176.081 99.1783 175.155 99.808C174.237 100.429 173.531 101.238 173.036 102.237C172.541 103.236 172.294 104.306 172.294 105.449V107.284C172.294 108.849 172.564 110.176 173.104 111.265C173.652 112.344 174.412 113.167 175.384 113.734C176.356 114.292 177.485 114.571 178.771 114.571C179.608 114.571 180.363 114.454 181.038 114.22C181.722 113.977 182.311 113.617 182.806 113.14C183.301 112.655 183.683 112.052 183.953 111.332L187.03 112.196C186.706 113.239 186.162 114.157 185.397 114.949C184.632 115.731 183.688 116.343 182.563 116.784C181.439 117.216 180.175 117.432 178.771 117.432Z"/><path fill="#F2F2F2" d="M94.1449 96.2725H94.6449V95.7725H94.1449V96.2725ZM94.1449 98.9713V99.4713H94.6449V98.9713H94.1449ZM82.9716 98.9713H82.4716V99.4713H82.9716V98.9713ZM82.9716 96.2725V95.7725H82.4716V96.2725H82.9716ZM86.3182 117H85.8182V117.5H86.3182V117ZM87.1548 90.4429L86.7461 90.155V90.155L87.1548 90.4429ZM89.3274 88.6617L89.1243 88.2048L89.3274 88.6617ZM94.0639 88.2569L93.9406 88.7414L93.9406 88.7414L94.0639 88.2569ZM95.1705 88.6077L95.6448 88.7658L95.7883 88.3352L95.3735 88.1508L95.1705 88.6077ZM94.2528 91.3605L94.0947 91.8349L94.5691 91.993L94.7272 91.5187L94.2528 91.3605ZM93.5781 91.1581L93.4387 91.6383L93.4428 91.6395L93.5781 91.1581ZM90.1911 91.8329L89.8159 91.5022L89.8128 91.5059L90.1911 91.8329ZM89.5028 117V117.5H90.0028V117H89.5028ZM93.6449 96.2725V98.9713H94.6449V96.2725H93.6449ZM94.1449 98.4713H82.9716V99.4713H94.1449V98.4713ZM83.4716 98.9713V96.2725H82.4716V98.9713H83.4716ZM82.9716 96.7725H94.1449V95.7725H82.9716V96.7725ZM86.8182 117V93.4117H85.8182V117H86.8182ZM86.8182 93.4117C86.8182 92.3036 87.0775 91.4208 87.5636 90.7309L86.7461 90.155C86.1166 91.0484 85.8182 92.1447 85.8182 93.4117H86.8182ZM87.5636 90.7309C88.0689 90.0136 88.7219 89.478 89.5305 89.1186L89.1243 88.2048C88.1517 88.6371 87.3562 89.2889 86.7461 90.155L87.5636 90.7309ZM89.5305 89.1186C90.3562 88.7516 91.227 88.5679 92.1477 88.5679V87.5679C91.0893 87.5679 90.0799 87.7801 89.1243 88.2048L89.5305 89.1186ZM92.1477 88.5679C92.9084 88.5679 93.5015 88.6296 93.9406 88.7414L94.1873 87.7723C93.6368 87.6322 92.9524 87.5679 92.1477 87.5679V88.5679ZM93.9406 88.7414C94.4281 88.8655 94.764 88.9742 94.9674 89.0646L95.3735 88.1508C95.0911 88.0253 94.6893 87.9001 94.1873 87.7723L93.9406 88.7414ZM94.6961 88.4496L93.7785 91.2024L94.7272 91.5187L95.6448 88.7658L94.6961 88.4496ZM94.411 90.8862C94.2379 90.8285 94.0043 90.7586 93.7135 90.6768L93.4428 91.6395C93.7277 91.7196 93.9439 91.7846 94.0947 91.8349L94.411 90.8862ZM93.7175 90.678C93.375 90.5785 92.9536 90.5367 92.4716 90.5367V91.5367C92.9072 91.5367 93.2235 91.5758 93.4387 91.6383L93.7175 90.678ZM92.4716 90.5367C91.3463 90.5367 90.4172 90.8201 89.8159 91.5023L90.5662 92.1635C90.9006 91.784 91.4918 91.5367 92.4716 91.5367V90.5367ZM89.8128 91.5059C89.2461 92.1615 89.0028 93.0759 89.0028 94.1674H90.0028C90.0028 93.2077 90.2184 92.5658 90.5693 92.1598L89.8128 91.5059ZM89.0028 94.1674V117H90.0028V94.1674H89.0028ZM89.5028 116.5H86.3182V117.5H89.5028V116.5ZM111.671 96.2725V95.7725H111.171V96.2725H111.671ZM114.855 96.2725H115.355V95.7725H114.855V96.2725ZM114.855 117V117.5H115.355V117H114.855ZM111.671 117H111.171V117.5H111.671V117ZM111.671 113.491H112.171V112.991H111.671V113.491ZM111.455 113.491V112.991H111.135L111.001 113.282L111.455 113.491ZM109.188 116.177L109.477 116.584L109.48 116.583L109.188 116.177ZM101.847 116.419L101.599 116.854L101.602 116.855L101.847 116.419ZM99.4718 113.829L99.0239 114.051L99.0246 114.052L99.4718 113.829ZM98.6081 96.2725V95.7725H98.1081V96.2725H98.6081ZM101.793 96.2725H102.293V95.7725H101.793V96.2725ZM103.061 112.844L102.697 113.186L102.699 113.188L103.061 112.844ZM108.742 113.586L108.523 113.137L108.521 113.138L108.742 113.586ZM110.82 111.723L110.407 111.443L110.404 111.446L110.82 111.723ZM112.171 108.525V96.2725H111.171V108.525H112.171ZM111.671 96.7725H114.855V95.7725H111.671V96.7725ZM114.355 96.2725V117H115.355V96.2725H114.355ZM114.855 116.5H111.671V117.5H114.855V116.5ZM112.171 117V113.491H111.171V117H112.171ZM111.671 112.991H111.455V113.991H111.671V112.991ZM111.001 113.282C110.554 114.249 109.858 115.079 108.896 115.771L109.48 116.583C110.569 115.799 111.384 114.839 111.909 113.701L111.001 113.282ZM108.898 115.769C107.976 116.424 106.788 116.77 105.301 116.77V117.77C106.945 117.77 108.348 117.386 109.477 116.584L108.898 115.769ZM105.301 116.77C104.081 116.77 103.016 116.503 102.092 115.984L101.602 116.855C102.693 117.469 103.931 117.77 105.301 117.77V116.77ZM102.095 115.985C101.182 115.464 100.456 114.678 99.919 113.605L99.0246 114.052C99.6394 115.282 100.496 116.224 101.599 116.854L102.095 115.985ZM99.9197 113.606C99.3883 112.535 99.1081 111.156 99.1081 109.443H98.1081C98.1081 111.257 98.4038 112.801 99.0239 114.051L99.9197 113.606ZM99.1081 109.443V96.2725H98.1081V109.443H99.1081ZM98.6081 96.7725H101.793V95.7725H98.6081V96.7725ZM101.293 96.2725V109.227H102.293V96.2725H101.293ZM101.293 109.227C101.293 110.836 101.746 112.174 102.697 113.186L103.426 112.501C102.686 111.714 102.293 110.641 102.293 109.227H101.293ZM102.699 113.188C103.655 114.194 104.877 114.693 106.327 114.693V113.693C105.131 113.693 104.177 113.292 103.424 112.499L102.699 113.188ZM106.327 114.693C107.206 114.693 108.087 114.468 108.964 114.034L108.521 113.138C107.76 113.513 107.031 113.693 106.327 113.693V114.693ZM108.962 114.035C109.876 113.588 110.634 112.904 111.237 112.001L110.404 111.446C109.891 112.216 109.264 112.774 108.523 113.137L108.962 114.035ZM111.234 112.004C111.871 111.064 112.171 109.893 112.171 108.525H111.171C111.171 109.749 110.903 110.71 110.407 111.443L111.234 112.004ZM129.702 96.2725H130.202V95.7725H129.702V96.2725ZM129.702 98.9713V99.4713H130.202V98.9713H129.702ZM118.961 98.9713H118.461V99.4713H118.961V98.9713ZM118.961 96.2725V95.7725H118.461V96.2725H118.961ZM122.092 91.3066V90.8066H121.592V91.3066H122.092ZM125.276 91.3066H125.776V90.8066H125.276V91.3066ZM125.668 113.086L125.235 113.337L125.241 113.347L125.668 113.086ZM126.693 113.977L126.52 114.446L126.532 114.45L126.693 113.977ZM128.893 114.139L128.972 114.633L128.981 114.631L128.991 114.629L128.893 114.139ZM129.433 114.031L129.92 113.921L129.813 113.445L129.334 113.541L129.433 114.031ZM130.08 116.892L130.256 117.36L130.664 117.207L130.568 116.781L130.08 116.892ZM129.176 117.135L129.074 116.645L129.063 116.648L129.176 117.135ZM125.06 116.689L124.854 117.145L124.856 117.146L125.06 116.689ZM122.928 114.922L122.52 115.21L122.522 115.213L122.928 114.922ZM129.202 96.2725V98.9713H130.202V96.2725H129.202ZM129.702 98.4713H118.961V99.4713H129.702V98.4713ZM119.461 98.9713V96.2725H118.461V98.9713H119.461ZM118.961 96.7725H129.702V95.7725H118.961V96.7725ZM122.092 91.8066H125.276V90.8066H122.092V91.8066ZM124.776 91.3066V111.062H125.776V91.3066H124.776ZM124.776 111.062C124.776 111.994 124.908 112.774 125.235 113.337L126.1 112.836C125.905 112.499 125.776 111.93 125.776 111.062H124.776ZM125.241 113.347C125.559 113.867 125.983 114.248 126.52 114.446L126.867 113.508C126.575 113.4 126.316 113.188 126.094 112.825L125.241 113.347ZM126.532 114.45C127.009 114.613 127.509 114.693 128.029 114.693V113.693C127.614 113.693 127.223 113.629 126.854 113.504L126.532 114.45ZM128.029 114.693C128.394 114.693 128.711 114.674 128.972 114.633L128.814 113.645C128.625 113.675 128.366 113.693 128.029 113.693V114.693ZM128.991 114.629C129.216 114.584 129.396 114.548 129.531 114.521L129.334 113.541C129.2 113.568 129.02 113.604 128.795 113.649L128.991 114.629ZM128.945 114.141L129.593 117.002L130.568 116.781L129.92 113.921L128.945 114.141ZM129.905 116.424C129.724 116.492 129.451 116.566 129.074 116.645L129.279 117.624C129.675 117.541 130.005 117.454 130.256 117.36L129.905 116.424ZM129.063 116.648C128.727 116.726 128.278 116.77 127.705 116.77V117.77C128.32 117.77 128.852 117.723 129.289 117.622L129.063 116.648ZM127.705 116.77C126.88 116.77 126.068 116.593 125.265 116.233L124.856 117.146C125.781 117.56 126.732 117.77 127.705 117.77V116.77ZM125.267 116.234C124.495 115.885 123.852 115.354 123.335 114.631L122.522 115.213C123.138 116.073 123.916 116.72 124.854 117.145L125.267 116.234ZM123.337 114.634C122.852 113.945 122.592 113.054 122.592 111.926H121.592C121.592 113.209 121.889 114.315 122.52 115.21L123.337 114.634ZM122.592 111.926V91.3066H121.592V111.926H122.592ZM147.555 96.2725V95.7725H147.055V96.2725H147.555ZM150.74 96.2725H151.24V95.7725H150.74V96.2725ZM150.74 117V117.5H151.24V117H150.74ZM147.555 117H147.055V117.5H147.555V117ZM147.555 113.491H148.055V112.991H147.555V113.491ZM147.339 113.491V112.991H147.02L146.886 113.282L147.339 113.491ZM145.072 116.177L145.362 116.584L145.364 116.583L145.072 116.177ZM137.732 116.419L137.483 116.854L137.486 116.855L137.732 116.419ZM135.357 113.829L134.909 114.051L134.909 114.052L135.357 113.829ZM134.493 96.2725V95.7725H133.993V96.2725H134.493ZM137.678 96.2725H138.178V95.7725H137.678V96.2725ZM138.946 112.844L138.582 113.186L138.584 113.188L138.946 112.844ZM144.627 113.586L144.407 113.137L144.405 113.138L144.627 113.586ZM146.705 111.723L146.291 111.443L146.289 111.446L146.705 111.723ZM148.055 108.525V96.2725H147.055V108.525H148.055ZM147.555 96.7725H150.74V95.7725H147.555V96.7725ZM150.24 96.2725V117H151.24V96.2725H150.24ZM150.74 116.5H147.555V117.5H150.74V116.5ZM148.055 117V113.491H147.055V117H148.055ZM147.555 112.991H147.339V113.991H147.555V112.991ZM146.886 113.282C146.439 114.249 145.742 115.079 144.78 115.771L145.364 116.583C146.454 115.799 147.268 114.839 147.793 113.701L146.886 113.282ZM144.783 115.769C143.861 116.424 142.673 116.77 141.186 116.77V117.77C142.83 117.77 144.233 117.386 145.362 116.584L144.783 115.769ZM141.186 116.77C139.966 116.77 138.901 116.503 137.977 115.984L137.486 116.855C138.578 117.469 139.815 117.77 141.186 117.77V116.77ZM137.98 115.985C137.067 115.464 136.34 114.678 135.804 113.605L134.909 114.052C135.524 115.282 136.381 116.224 137.483 116.854L137.98 115.985ZM135.804 113.606C135.273 112.535 134.993 111.156 134.993 109.443H133.993C133.993 111.257 134.289 112.801 134.909 114.051L135.804 113.606ZM134.993 109.443V96.2725H133.993V109.443H134.993ZM134.493 96.7725H137.678V95.7725H134.493V96.7725ZM137.178 96.2725V109.227H138.178V96.2725H137.178ZM137.178 109.227C137.178 110.836 137.63 112.174 138.582 113.186L139.31 112.501C138.57 111.714 138.178 110.641 138.178 109.227H137.178ZM138.584 113.188C139.539 114.194 140.762 114.693 142.212 114.693V113.693C141.016 113.693 140.062 113.292 139.309 112.499L138.584 113.188ZM142.212 114.693C143.091 114.693 143.972 114.468 144.849 114.034L144.405 113.138C143.645 113.513 142.915 113.693 142.212 113.693V114.693ZM144.847 114.035C145.761 113.588 146.519 112.904 147.121 112.001L146.289 111.446C145.776 112.216 145.148 112.774 144.407 113.137L144.847 114.035ZM147.119 112.004C147.756 111.064 148.055 109.893 148.055 108.525H147.055C147.055 109.749 146.788 110.71 146.291 111.443L147.119 112.004ZM156.573 117H156.073V117.5H156.573V117ZM156.573 96.2725V95.7725H156.073V96.2725H156.573ZM159.65 96.2725H160.15V95.7725H159.65V96.2725ZM159.65 99.4032H159.15V99.9032H159.65V99.4032ZM159.866 99.4032V99.9032H160.214L160.335 99.576L159.866 99.4032ZM161.917 96.9067L161.646 96.4866L161.917 96.9067ZM166.937 96.0026H167.437V95.5501L166.986 95.5051L166.937 96.0026ZM166.937 99.2412L166.815 99.7263L167.437 99.8816V99.2412H166.937ZM166.194 99.1198L166.112 99.6132L166.125 99.615L166.194 99.1198ZM162.295 99.6596L162.528 100.102L162.53 100.101L162.295 99.6596ZM160.432 101.387L160.008 101.123L160.007 101.124L160.432 101.387ZM159.758 117V117.5H160.258V117H159.758ZM157.073 117V96.2725H156.073V117H157.073ZM156.573 96.7725H159.65V95.7725H156.573V96.7725ZM159.15 96.2725V99.4032H160.15V96.2725H159.15ZM159.65 99.9032H159.866V98.9032H159.65V99.9032ZM160.335 99.576C160.672 98.6602 161.282 97.9116 162.188 97.3268L161.646 96.4866C160.572 97.1793 159.815 98.095 159.396 99.2303L160.335 99.576ZM162.188 97.3268C163.092 96.7431 164.113 96.4486 165.263 96.4486V95.4486C163.931 95.4486 162.72 95.7928 161.646 96.4866L162.188 97.3268ZM165.263 96.4486C165.491 96.4486 165.779 96.453 166.128 96.4619L166.153 95.4623C165.8 95.4532 165.503 95.4486 165.263 95.4486V96.4486ZM166.128 96.4619C166.475 96.4709 166.726 96.484 166.887 96.5001L166.986 95.5051C166.788 95.4852 166.507 95.4714 166.153 95.4623L166.128 96.4619ZM166.437 96.0026V99.2412H167.437V96.0026H166.437ZM167.058 98.7562C166.919 98.7214 166.643 98.6775 166.264 98.6246L166.125 99.615C166.52 99.67 166.738 99.7071 166.815 99.7263L167.058 98.7562ZM166.277 98.6266C165.869 98.5586 165.441 98.5253 164.993 98.5253V99.5253C165.392 99.5253 165.764 99.555 166.112 99.613L166.277 98.6266ZM164.993 98.5253C163.914 98.5253 162.932 98.7524 162.059 99.2185L162.53 100.101C163.241 99.721 164.058 99.5253 164.993 99.5253V98.5253ZM162.061 99.2175C161.201 99.6719 160.514 100.308 160.008 101.123L160.857 101.651C161.268 100.99 161.822 100.475 162.528 100.102L162.061 99.2175ZM160.007 101.124C159.504 101.939 159.258 102.864 159.258 103.883H160.258C160.258 103.032 160.461 102.292 160.858 101.649L160.007 101.124ZM159.258 103.883V117H160.258V103.883H159.258ZM159.758 116.5H156.573V117.5H159.758V116.5ZM173.603 116.109L173.34 116.534L173.343 116.536L173.603 116.109ZM170.27 112.385L169.819 112.602L169.821 112.605L170.27 112.385ZM170.27 101.184L169.819 100.968L169.819 100.969L170.27 101.184ZM173.535 97.379L173.808 97.7979L173.809 97.7975L173.535 97.379ZM181.645 96.5424L181.807 96.0693L181.645 96.5424ZM184.52 98.2966L184.178 98.6614L184.18 98.6633L184.52 98.2966ZM186.584 101.481L187.051 101.301L186.584 101.481ZM187.354 107.716V108.216H187.854V107.716H187.354ZM171.376 107.716H170.876V108.216H171.376V107.716ZM171.376 104.963V104.463H170.876V104.963H171.376ZM184.115 104.963V105.463H184.615V104.963H184.115ZM183.413 101.832L182.966 102.056L182.968 102.059L183.413 101.832ZM181.443 99.6596L181.177 100.083L181.179 100.084L181.443 99.6596ZM175.155 99.808L175.435 100.222L175.436 100.222L175.155 99.808ZM173.036 102.237L172.588 102.015L173.036 102.237ZM173.104 111.265L172.656 111.487L172.658 111.491L173.104 111.265ZM175.384 113.734L175.132 114.166L175.135 114.168L175.384 113.734ZM181.038 114.22L181.202 114.692L181.206 114.691L181.038 114.22ZM182.806 113.14L183.153 113.5L183.156 113.497L182.806 113.14ZM183.953 111.332L184.088 110.851L183.646 110.727L183.485 111.157L183.953 111.332ZM187.03 112.196L187.507 112.344L187.659 111.853L187.165 111.714L187.03 112.196ZM185.397 114.949L185.754 115.298L185.756 115.296L185.397 114.949ZM182.563 116.784L182.742 117.251L182.746 117.249L182.563 116.784ZM178.771 116.932C176.849 116.932 175.22 116.508 173.863 115.682L173.343 116.536C174.883 117.473 176.699 117.932 178.771 117.932V116.932ZM173.866 115.684C172.51 114.845 171.462 113.676 170.718 112.164L169.821 112.605C170.643 114.278 171.817 115.592 173.34 116.534L173.866 115.684ZM170.72 112.167C169.985 110.646 169.609 108.86 169.609 106.798H168.609C168.609 108.982 169.007 110.921 169.82 112.602L170.72 112.167ZM169.609 106.798C169.609 104.736 169.985 102.941 170.721 101.4L169.819 100.969C169.007 102.667 168.609 104.614 168.609 106.798H169.609ZM170.72 101.401C171.467 99.8478 172.497 98.6524 173.808 97.7979L173.262 96.9601C171.785 97.9229 170.638 99.2644 169.819 100.968L170.72 101.401ZM173.809 97.7975C175.122 96.9391 176.662 96.5026 178.447 96.5026V95.5026C176.491 95.5026 174.756 95.9837 173.262 96.9605L173.809 97.7975ZM178.447 96.5026C179.47 96.5026 180.482 96.6729 181.484 97.0155L181.807 96.0693C180.704 95.6922 179.584 95.5026 178.447 95.5026V96.5026ZM181.484 97.0155C182.465 97.3509 183.362 97.8971 184.178 98.6614L184.862 97.9319C183.95 97.0769 182.931 96.4535 181.807 96.0693L181.484 97.0155ZM184.18 98.6633C184.978 99.4029 185.627 100.396 186.118 101.662L187.051 101.301C186.516 99.9216 185.789 98.7917 184.86 97.93L184.18 98.6633ZM186.118 101.662C186.602 102.91 186.854 104.473 186.854 106.366H187.854C187.854 104.391 187.592 102.697 187.051 101.301L186.118 101.662ZM186.854 106.366V107.716H187.854V106.366H186.854ZM187.354 107.216H171.376V108.216H187.354V107.216ZM171.876 107.716V104.963H170.876V107.716H171.876ZM171.376 105.463H184.115V104.463H171.376V105.463ZM184.615 104.963C184.615 103.725 184.367 102.602 183.859 101.605L182.968 102.059C183.395 102.898 183.615 103.861 183.615 104.963H184.615ZM183.86 101.609C183.361 100.61 182.642 99.8154 181.707 99.2348L181.179 100.084C181.954 100.565 182.548 101.219 182.966 102.056L183.86 101.609ZM181.709 99.2361C180.772 98.648 179.678 98.3634 178.447 98.3634V99.3634C179.519 99.3634 180.423 99.6096 181.177 100.083L181.709 99.2361ZM178.447 98.3634C177.092 98.3634 175.894 98.7011 174.874 99.3945L175.436 100.222C176.269 99.6554 177.265 99.3634 178.447 99.3634V98.3634ZM174.874 99.3939C173.885 100.063 173.121 100.939 172.588 102.015L173.484 102.459C173.941 101.537 174.589 100.794 175.435 100.222L174.874 99.3939ZM172.588 102.015C172.058 103.084 171.794 104.231 171.794 105.449H172.794C172.794 104.381 173.024 103.387 173.484 102.459L172.588 102.015ZM171.794 105.449V107.284H172.794V105.449H171.794ZM171.794 107.284C171.794 108.905 172.073 110.312 172.656 111.487L173.551 111.043C173.054 110.04 172.794 108.794 172.794 107.284H171.794ZM172.658 111.491C173.247 112.65 174.071 113.547 175.132 114.166L175.636 113.302C174.754 112.788 174.058 112.039 173.549 111.038L172.658 111.491ZM175.135 114.168C176.193 114.775 177.41 115.071 178.771 115.071V114.071C177.559 114.071 176.518 113.809 175.633 113.301L175.135 114.168ZM178.771 115.071C179.654 115.071 180.466 114.947 181.202 114.692L180.874 113.748C180.261 113.96 179.561 114.071 178.771 114.071V115.071ZM181.206 114.691C181.953 114.426 182.604 114.029 183.153 113.5L182.459 112.78C182.018 113.205 181.491 113.528 180.871 113.749L181.206 114.691ZM183.156 113.497C183.708 112.955 184.128 112.288 184.421 111.508L183.485 111.157C183.238 111.815 182.893 112.354 182.456 112.784L183.156 113.497ZM183.818 111.814L186.895 112.677L187.165 111.714L184.088 110.851L183.818 111.814ZM186.552 112.048C186.252 113.016 185.748 113.865 185.037 114.601L185.756 115.296C186.575 114.448 187.16 113.463 187.507 112.344L186.552 112.048ZM185.039 114.599C184.329 115.326 183.446 115.901 182.381 116.318L182.746 117.249C183.929 116.785 184.935 116.136 185.754 115.298L185.039 114.599ZM182.384 116.317C181.325 116.724 180.123 116.932 178.771 116.932V117.932C180.226 117.932 181.552 117.708 182.742 117.251L182.384 116.317Z"/><path fill="#F2F2F2" d="M69.3466 70.9998V43.3634H86.0256V46.3321H72.6932V55.6702H85.1619V58.639H72.6932V68.031H86.2415V70.9998H69.3466ZM94.8104 43.3634V70.9998H91.6257V43.3634H94.8104ZM109.334 71.4316C107.336 71.4316 105.614 70.9908 104.165 70.1091C102.726 69.2185 101.615 67.977 100.832 66.3847C100.059 64.7834 99.6717 62.9212 99.6717 60.7981C99.6717 58.6749 100.059 56.8037 100.832 55.1844C101.615 53.5561 102.703 52.2876 104.098 51.379C105.501 50.4614 107.139 50.0026 109.01 50.0026C110.089 50.0026 111.155 50.1825 112.208 50.5424C113.26 50.9022 114.219 51.487 115.082 52.2966C115.946 53.0973 116.634 54.1588 117.147 55.4813C117.66 56.8037 117.916 58.432 117.916 60.3662V61.7157H101.939V58.9628H114.677C114.677 57.7933 114.443 56.7498 113.976 55.8321C113.517 54.9145 112.86 54.1903 112.006 53.6596C111.16 53.1288 110.161 52.8634 109.01 52.8634C107.741 52.8634 106.644 53.1783 105.717 53.808C104.8 54.4287 104.093 55.2384 103.599 56.237C103.104 57.2356 102.856 58.3061 102.856 59.4486V61.2838C102.856 62.8492 103.126 64.1761 103.666 65.2647C104.215 66.3442 104.975 67.1674 105.947 67.7341C106.918 68.2919 108.047 68.5708 109.334 68.5708C110.17 68.5708 110.926 68.4538 111.601 68.2199C112.284 67.977 112.874 67.6172 113.368 67.1404C113.863 66.6546 114.246 66.0518 114.515 65.3321L117.592 66.1958C117.268 67.2393 116.724 68.157 115.959 68.9486C115.195 69.7313 114.25 70.343 113.126 70.7838C112.001 71.2157 110.737 71.4316 109.334 71.4316ZM131.181 71.4316C129.238 71.4316 127.564 70.9728 126.161 70.0552C124.758 69.1375 123.678 67.8736 122.922 66.2633C122.167 64.6529 121.789 62.8132 121.789 60.7441C121.789 58.639 122.176 56.7812 122.949 55.1709C123.732 53.5516 124.821 52.2876 126.215 51.379C127.618 50.4614 129.256 50.0026 131.127 50.0026C132.584 50.0026 133.898 50.2725 135.067 50.8123C136.237 51.352 137.195 52.1077 137.942 53.0793C138.688 54.0509 139.152 55.1844 139.331 56.4799H136.147C135.904 55.5353 135.364 54.6986 134.528 53.9699C133.7 53.2322 132.584 52.8634 131.181 52.8634C129.939 52.8634 128.851 53.1873 127.915 53.835C126.989 54.4737 126.265 55.3778 125.743 56.5473C125.23 57.7079 124.974 59.0708 124.974 60.6361C124.974 62.2374 125.225 63.6319 125.729 64.8194C126.242 66.0069 126.962 66.929 127.888 67.5857C128.824 68.2424 129.921 68.5708 131.181 68.5708C132.009 68.5708 132.76 68.4268 133.434 68.139C134.109 67.8511 134.68 67.4373 135.148 66.8975C135.616 66.3577 135.949 65.71 136.147 64.9543H139.331C139.152 66.1778 138.706 67.2798 137.996 68.2604C137.294 69.232 136.363 70.0057 135.202 70.5814C134.051 71.1482 132.71 71.4316 131.181 71.4316ZM153.001 50.2725V52.9713H142.26V50.2725H153.001ZM145.39 45.3066H148.575V65.0623C148.575 65.9619 148.706 66.6366 148.966 67.0864C149.236 67.5272 149.578 67.8241 149.992 67.977C150.415 68.121 150.86 68.1929 151.328 68.1929C151.679 68.1929 151.967 68.1749 152.192 68.139C152.416 68.094 152.596 68.058 152.731 68.031L153.379 70.8918C153.163 70.9728 152.862 71.0537 152.475 71.1347C152.088 71.2247 151.598 71.2696 151.004 71.2696C150.104 71.2696 149.223 71.0762 148.359 70.6894C147.505 70.3025 146.794 69.7133 146.227 68.9216C145.669 68.13 145.39 67.1314 145.39 65.9259V45.3066ZM157.792 70.9998V50.2725H160.868V53.4032H161.084C161.462 52.3776 162.146 51.5454 163.135 50.9067C164.125 50.268 165.241 49.9486 166.482 49.9486C166.716 49.9486 167.008 49.9531 167.359 49.9621C167.71 49.9711 167.975 49.9846 168.155 50.0026V53.2412C168.047 53.2142 167.8 53.1738 167.413 53.1198C167.035 53.0568 166.635 53.0253 166.212 53.0253C165.205 53.0253 164.305 53.2367 163.513 53.6596C162.731 54.0734 162.11 54.6491 161.651 55.3868C161.201 56.1155 160.976 56.9477 160.976 57.8833V70.9998H157.792ZM179.72 71.4316C177.849 71.4316 176.207 70.9863 174.795 70.0956C173.391 69.205 172.294 67.959 171.502 66.3577C170.719 64.7564 170.328 62.8852 170.328 60.7441C170.328 58.585 170.719 56.7003 171.502 55.09C172.294 53.4796 173.391 52.2292 174.795 51.3385C176.207 50.4479 177.849 50.0026 179.72 50.0026C181.591 50.0026 183.229 50.4479 184.632 51.3385C186.044 52.2292 187.142 53.4796 187.925 55.09C188.716 56.7003 189.112 58.585 189.112 60.7441C189.112 62.8852 188.716 64.7564 187.925 66.3577C187.142 67.959 186.044 69.205 184.632 70.0956C183.229 70.9863 181.591 71.4316 179.72 71.4316ZM179.72 68.5708C181.141 68.5708 182.311 68.2064 183.229 67.4777C184.146 66.749 184.825 65.7909 185.266 64.6034C185.707 63.4159 185.927 62.1295 185.927 60.7441C185.927 59.3587 185.707 58.0677 185.266 56.8712C184.825 55.6747 184.146 54.7076 183.229 53.9699C182.311 53.2322 181.141 52.8634 179.72 52.8634C178.299 52.8634 177.129 53.2322 176.211 53.9699C175.294 54.7076 174.615 55.6747 174.174 56.8712C173.733 58.0677 173.513 59.3587 173.513 60.7441C173.513 62.1295 173.733 63.4159 174.174 64.6034C174.615 65.7909 175.294 66.749 176.211 67.4777C177.129 68.2064 178.299 68.5708 179.72 68.5708Z"/><path fill="#F2F2F2" d="M69.3466 70.9998H68.7578V71.5886H69.3466V70.9998ZM69.3466 43.3634V42.7746H68.7578V43.3634H69.3466ZM86.0256 43.3634H86.6144V42.7746H86.0256V43.3634ZM86.0256 46.3321V46.9209H86.6144V46.3321H86.0256ZM72.6932 46.3321V45.7433H72.1044V46.3321H72.6932ZM72.6932 55.6702H72.1044V56.259H72.6932V55.6702ZM85.1619 55.6702H85.7507V55.0814H85.1619V55.6702ZM85.1619 58.639V59.2278H85.7507V58.639H85.1619ZM72.6932 58.639V58.0502H72.1044V58.639H72.6932ZM72.6932 68.031H72.1044V68.6198H72.6932V68.031ZM86.2415 68.031H86.8303V67.4422H86.2415V68.031ZM86.2415 70.9998V71.5886H86.8303V70.9998H86.2415ZM69.9354 70.9998V43.3634H68.7578V70.9998H69.9354ZM69.3466 43.9522H86.0256V42.7746H69.3466V43.9522ZM85.4368 43.3634V46.3321H86.6144V43.3634H85.4368ZM86.0256 45.7433H72.6932V46.9209H86.0256V45.7433ZM72.1044 46.3321V55.6702H73.282V46.3321H72.1044ZM72.6932 56.259H85.1619V55.0814H72.6932V56.259ZM84.5731 55.6702V58.639H85.7507V55.6702H84.5731ZM85.1619 58.0502H72.6932V59.2278H85.1619V58.0502ZM72.1044 58.639V68.031H73.282V58.639H72.1044ZM72.6932 68.6198H86.2415V67.4422H72.6932V68.6198ZM85.6527 68.031V70.9998H86.8303V68.031H85.6527ZM86.2415 70.411H69.3466V71.5886H86.2415V70.411ZM94.8104 43.3634H95.3992V42.7746H94.8104V43.3634ZM94.8104 70.9998V71.5886H95.3992V70.9998H94.8104ZM91.6257 70.9998H91.0369V71.5886H91.6257V70.9998ZM91.6257 43.3634V42.7746H91.0369V43.3634H91.6257ZM94.2216 43.3634V70.9998H95.3992V43.3634H94.2216ZM94.8104 70.411H91.6257V71.5886H94.8104V70.411ZM92.2145 70.9998V43.3634H91.0369V70.9998H92.2145ZM91.6257 43.9522H94.8104V42.7746H91.6257V43.9522ZM104.165 70.1091L103.855 70.6098L103.859 70.6121L104.165 70.1091ZM100.832 66.3847L100.302 66.6409L100.304 66.6444L100.832 66.3847ZM100.832 55.1844L100.302 54.9293L100.301 54.9306L100.832 55.1844ZM104.098 51.379L104.419 51.8723L104.42 51.8718L104.098 51.379ZM112.208 50.5424L112.398 49.9852L112.208 50.5424ZM115.082 52.2966L114.679 52.7262L114.682 52.7284L115.082 52.2966ZM117.147 55.4813L117.696 55.2684V55.2684L117.147 55.4813ZM117.916 61.7157V62.3045H118.505V61.7157H117.916ZM101.939 61.7157H101.35V62.3045H101.939V61.7157ZM101.939 58.9628V58.374H101.35V58.9628H101.939ZM114.677 58.9628V59.5516H115.266V58.9628H114.677ZM113.976 55.8321L113.449 56.0955L113.451 56.0996L113.976 55.8321ZM112.006 53.6596L111.692 54.1583L111.695 54.1597L112.006 53.6596ZM105.717 53.808L106.047 54.2957L106.048 54.295L105.717 53.808ZM103.599 56.237L103.071 55.9756V55.9756L103.599 56.237ZM103.666 65.2647L103.138 65.5263L103.141 65.5315L103.666 65.2647ZM105.947 67.7341L105.65 68.2427L105.653 68.2448L105.947 67.7341ZM111.601 68.2199L111.794 68.7763L111.798 68.7748L111.601 68.2199ZM113.368 67.1404L113.777 67.5644L113.781 67.5605L113.368 67.1404ZM114.515 65.3321L114.675 64.7653L114.154 64.6191L113.964 65.1254L114.515 65.3321ZM117.592 66.1958L118.154 66.3703L118.334 65.7924L117.751 65.6289L117.592 66.1958ZM115.959 68.9486L116.381 69.3601L116.383 69.3577L115.959 68.9486ZM113.126 70.7838L113.337 71.3335L113.34 71.332L113.126 70.7838ZM109.334 70.8428C107.425 70.8428 105.812 70.4223 104.471 69.6062L103.859 70.6121C105.415 71.5592 107.248 72.0204 109.334 72.0204V70.8428ZM104.475 69.6084C103.134 68.7789 102.097 67.6231 101.361 66.125L100.304 66.6444C101.133 68.331 102.317 69.6581 103.855 70.6098L104.475 69.6084ZM101.362 66.1286C100.634 64.6211 100.26 62.8495 100.26 60.7981H99.0829C99.0829 62.9929 99.483 64.9456 100.302 66.6408L101.362 66.1286ZM100.26 60.7981C100.26 58.7469 100.634 56.9651 101.363 55.4382L100.301 54.9306C99.4831 56.6424 99.0829 58.603 99.0829 60.7981H100.26ZM101.363 55.4395C102.103 53.8996 103.123 52.7172 104.419 51.8723L103.776 50.8857C102.284 51.8581 101.127 53.2126 100.302 54.9293L101.363 55.4395ZM104.42 51.8718C105.717 51.024 107.239 50.5914 109.01 50.5914V49.4138C107.038 49.4138 105.286 49.8988 103.776 50.8862L104.42 51.8718ZM109.01 50.5914C110.023 50.5914 111.024 50.76 112.017 51.0995L112.398 49.9852C111.286 49.6051 110.156 49.4138 109.01 49.4138V50.5914ZM112.017 51.0995C112.986 51.4306 113.873 51.9699 114.68 52.7262L115.485 51.8671C114.564 51.0041 113.535 50.3738 112.398 49.9852L112.017 51.0995ZM114.682 52.7284C115.468 53.4572 116.111 54.4382 116.598 55.6942L117.696 55.2684C117.157 53.8795 116.424 52.7374 115.483 51.8648L114.682 52.7284ZM116.598 55.6942C117.077 56.9289 117.327 58.4801 117.327 60.3662H118.505C118.505 58.384 118.243 56.6785 117.696 55.2684L116.598 55.6942ZM117.327 60.3662V61.7157H118.505V60.3662H117.327ZM117.916 61.1269H101.939V62.3045H117.916V61.1269ZM102.528 61.7157V58.9628H101.35V61.7157H102.528ZM101.939 59.5516H114.677V58.374H101.939V59.5516ZM115.266 58.9628C115.266 57.713 115.016 56.5758 114.5 55.5647L113.451 56.0996C113.871 56.9237 114.089 57.8736 114.089 58.9628H115.266ZM114.502 55.5688C113.996 54.5558 113.265 53.7488 112.316 53.1594L111.695 54.1597C112.455 54.6319 113.038 55.2732 113.449 56.0955L114.502 55.5688ZM112.319 53.1609C111.365 52.5626 110.255 52.2746 109.01 52.2746V53.4522C110.068 53.4522 110.954 53.6949 111.692 54.1583L112.319 53.1609ZM109.01 52.2746C107.639 52.2746 106.423 52.6164 105.386 53.321L106.048 54.295C106.865 53.7401 107.843 53.4522 109.01 53.4522V52.2746ZM105.387 53.3203C104.385 53.9985 103.611 54.8863 103.071 55.9756L104.126 56.4984C104.576 55.5905 105.214 54.859 106.047 54.2957L105.387 53.3203ZM103.071 55.9756C102.535 57.0575 102.268 58.2178 102.268 59.4486H103.445C103.445 58.3944 103.673 57.4136 104.126 56.4984L103.071 55.9756ZM102.268 59.4486V61.2838H103.445V59.4486H102.268ZM102.268 61.2838C102.268 62.9146 102.549 64.3364 103.139 65.5262L104.194 65.0031C103.704 64.0158 103.445 62.7837 103.445 61.2838H102.268ZM103.141 65.5315C103.737 66.7038 104.573 67.6146 105.65 68.2427L106.243 67.2255C105.377 66.7202 104.693 65.9846 104.191 64.9979L103.141 65.5315ZM105.653 68.2448C106.727 68.8609 107.96 69.1596 109.334 69.1596V67.982C108.135 67.982 107.11 67.7229 106.24 67.2235L105.653 68.2448ZM109.334 69.1596C110.225 69.1596 111.047 69.035 111.794 68.7762L111.408 67.6636C110.805 67.8727 110.116 67.982 109.334 67.982V69.1596ZM111.798 68.7748C112.556 68.5054 113.218 68.1026 113.777 67.5644L112.96 66.7164C112.529 67.1318 112.013 67.4487 111.404 67.6651L111.798 68.7748ZM113.781 67.5605C114.343 67.0083 114.77 66.3302 115.067 65.5389L113.964 65.1254C113.721 65.7735 113.383 66.3009 112.956 66.7202L113.781 67.5605ZM114.356 65.899L117.433 66.7627L117.751 65.6289L114.675 64.7653L114.356 65.899ZM117.03 66.0213C116.733 66.9762 116.237 67.8136 115.536 68.5396L116.383 69.3577C117.211 68.5003 117.803 67.5025 118.154 66.3703L117.03 66.0213ZM115.538 68.5371C114.838 69.2542 113.966 69.8221 112.911 70.2357L113.34 71.332C114.534 70.864 115.552 70.2084 116.38 69.3601L115.538 68.5371ZM112.914 70.2342C111.867 70.6362 110.677 70.8428 109.334 70.8428V72.0204C110.797 72.0204 112.135 71.7951 113.337 71.3335L112.914 70.2342ZM126.161 70.0552L125.839 70.548L126.161 70.0552ZM122.949 55.1709L122.419 54.9147L122.419 54.9159L122.949 55.1709ZM126.215 51.379L126.536 51.8723L126.537 51.8718L126.215 51.379ZM137.942 53.0793L138.408 52.7205V52.7205L137.942 53.0793ZM139.331 56.4799V57.0687H140.008L139.915 56.3989L139.331 56.4799ZM136.147 56.4799L135.577 56.6265L135.69 57.0687H136.147V56.4799ZM134.528 53.9699L134.136 54.4095L134.141 54.4139L134.528 53.9699ZM127.915 53.835L128.249 54.3198L128.25 54.3191L127.915 53.835ZM125.743 56.5473L125.205 56.3074L125.204 56.3094L125.743 56.5473ZM125.729 64.8194L125.187 65.0493L125.189 65.0528L125.729 64.8194ZM127.888 67.5857L127.548 68.0661L127.55 68.0676L127.888 67.5857ZM133.434 68.139L133.203 67.5974V67.5974L133.434 68.139ZM135.148 66.8975L135.593 67.2831L135.148 66.8975ZM136.147 64.9543V64.3655H135.692L135.577 64.8051L136.147 64.9543ZM139.331 64.9543L139.914 65.04L140.013 64.3655H139.331V64.9543ZM137.996 68.2604L137.519 67.9149L137.518 67.9157L137.996 68.2604ZM135.202 70.5814L135.462 71.1097L135.464 71.1089L135.202 70.5814ZM131.181 70.8428C129.334 70.8428 127.776 70.4079 126.483 69.5623L125.839 70.548C127.353 71.5377 129.142 72.0204 131.181 72.0204V70.8428ZM126.483 69.5623C125.177 68.7082 124.168 67.5308 123.455 66.0131L122.389 66.5134C123.189 68.2163 124.338 69.5669 125.839 70.548L126.483 69.5623ZM123.455 66.0131C122.742 64.4928 122.378 62.7408 122.378 60.7441H121.2C121.2 62.8856 121.591 64.813 122.389 66.5134L123.455 66.0131ZM122.378 60.7441C122.378 58.7116 122.751 56.9437 123.48 55.4259L122.419 54.9159C121.601 56.6188 121.2 58.5663 121.2 60.7441H122.378ZM123.48 55.4271C124.219 53.8963 125.239 52.7177 126.536 51.8723L125.894 50.8857C124.402 51.8576 123.245 53.2069 122.419 54.9147L123.48 55.4271ZM126.537 51.8718C127.834 51.024 129.356 50.5914 131.127 50.5914V49.4138C129.155 49.4138 127.403 49.8988 125.893 50.8862L126.537 51.8718ZM131.127 50.5914C132.51 50.5914 133.738 50.8472 134.821 51.3469L135.314 50.2776C134.058 49.6978 132.658 49.4138 131.127 49.4138V50.5914ZM134.821 51.3469C135.908 51.8488 136.789 52.5459 137.475 53.4381L138.408 52.7205C137.601 51.6695 136.565 50.8552 135.314 50.2776L134.821 51.3469ZM137.475 53.4381C138.155 54.3233 138.581 55.3595 138.748 56.5609L139.915 56.3989C139.722 55.0093 139.222 53.7785 138.408 52.7205L137.475 53.4381ZM139.331 55.8911H136.147V57.0687H139.331V55.8911ZM136.717 56.3332C136.441 55.2578 135.828 54.3217 134.914 53.5259L134.141 54.4139C134.9 55.0755 135.367 55.8127 135.577 56.6265L136.717 56.3332ZM134.919 53.5304C133.957 52.6731 132.689 52.2746 131.181 52.2746V53.4522C132.48 53.4522 133.442 53.7914 134.136 54.4095L134.919 53.5304ZM131.181 52.2746C129.831 52.2746 128.623 52.6288 127.58 53.3509L128.25 54.3191C129.079 53.7458 130.048 53.4522 131.181 53.4522V52.2746ZM127.581 53.3502C126.554 54.0584 125.765 55.0531 125.205 56.3074L126.28 56.7872C126.764 55.7026 127.424 54.889 128.249 54.3198L127.581 53.3502ZM125.204 56.3094C124.651 57.5602 124.385 59.0075 124.385 60.6361H125.562C125.562 59.1341 125.808 57.8555 126.281 56.7853L125.204 56.3094ZM124.385 60.6361C124.385 62.298 124.646 63.7738 125.187 65.0493L126.271 64.5894C125.805 63.4899 125.562 62.1769 125.562 60.6361H124.385ZM125.189 65.0528C125.738 66.3253 126.521 67.3386 127.548 68.0661L128.229 67.1053C127.402 66.5193 126.746 65.6884 126.27 64.5859L125.189 65.0528ZM127.55 68.0676C128.595 68.801 129.813 69.1596 131.181 69.1596V67.982C130.03 67.982 129.053 67.6839 128.227 67.1038L127.55 68.0676ZM131.181 69.1596C132.078 69.1596 132.909 69.0033 133.666 68.6805L133.203 67.5974C132.611 67.8503 131.939 67.982 131.181 67.982V69.1596ZM133.666 68.6805C134.42 68.3586 135.065 67.8923 135.593 67.2831L134.703 66.5119C134.296 66.9822 133.798 67.3436 133.203 67.5974L133.666 68.6805ZM135.593 67.2831C136.126 66.6689 136.498 65.9382 136.716 65.1035L135.577 64.8051C135.4 65.4818 135.107 66.0465 134.703 66.5119L135.593 67.2831ZM136.147 65.5431H139.331V64.3655H136.147V65.5431ZM138.749 64.8686C138.583 66.0003 138.173 67.0128 137.519 67.9149L138.472 68.6059C139.24 67.5469 139.721 66.3553 139.914 65.04L138.749 64.8686ZM137.518 67.9157C136.877 68.8036 136.023 69.5172 134.941 70.054L135.464 71.1089C136.703 70.4942 137.711 69.6604 138.473 68.6051L137.518 67.9157ZM134.942 70.0532C133.886 70.5732 132.637 70.8428 131.181 70.8428V72.0204C132.783 72.0204 134.216 71.7232 135.462 71.1097L134.942 70.0532ZM153.001 50.2725H153.59V49.6837H153.001V50.2725ZM153.001 52.9713V53.5601H153.59V52.9713H153.001ZM142.26 52.9713H141.671V53.5601H142.26V52.9713ZM142.26 50.2725V49.6837H141.671V50.2725H142.26ZM145.39 45.3066V44.7178H144.802V45.3066H145.39ZM148.575 45.3066H149.164V44.7178H148.575V45.3066ZM148.966 67.0864L148.457 67.3819L148.464 67.3938L148.966 67.0864ZM149.992 67.977L149.788 68.5293L149.795 68.532L149.802 68.5344L149.992 67.977ZM152.192 68.139L152.285 68.7204L152.296 68.7186L152.307 68.7163L152.192 68.139ZM152.731 68.031L153.306 67.901L153.179 67.341L152.616 67.4536L152.731 68.031ZM153.379 70.8918L153.586 71.4431L154.067 71.2628L153.953 70.7618L153.379 70.8918ZM152.475 71.1347L152.354 70.5582L152.342 70.5612L152.475 71.1347ZM148.359 70.6894L148.116 71.2258L148.119 71.2267L148.359 70.6894ZM146.227 68.9216L145.746 69.2608L145.748 69.2644L146.227 68.9216ZM152.412 50.2725V52.9713H153.59V50.2725H152.412ZM153.001 52.3825H142.26V53.5601H153.001V52.3825ZM142.849 52.9713V50.2725H141.671V52.9713H142.849ZM142.26 50.8613H153.001V49.6837H142.26V50.8613ZM145.39 45.8954H148.575V44.7178H145.39V45.8954ZM147.986 45.3066V65.0623H149.164V45.3066H147.986ZM147.986 65.0623C147.986 65.9995 148.119 66.7985 148.457 67.3818L149.476 66.791C149.292 66.4747 149.164 65.9242 149.164 65.0623H147.986ZM148.464 67.3938C148.791 67.9273 149.23 68.323 149.788 68.5293L150.196 67.4247C149.927 67.3252 149.682 67.1272 149.469 66.779L148.464 67.3938ZM149.802 68.5344C150.289 68.7001 150.799 68.7817 151.328 68.7817V67.6041C150.922 67.6041 150.541 67.5418 150.182 67.4196L149.802 68.5344ZM151.328 68.7817C151.695 68.7817 152.017 68.7632 152.285 68.7204L152.099 67.5576C151.916 67.5867 151.662 67.6041 151.328 67.6041V68.7817ZM152.307 68.7163C152.532 68.6713 152.712 68.6354 152.847 68.6084L152.616 67.4536C152.481 67.4806 152.301 67.5166 152.076 67.5616L152.307 68.7163ZM152.157 68.161L152.805 71.0218L153.953 70.7618L153.306 67.901L152.157 68.161ZM153.172 70.3405C152.997 70.4061 152.729 70.4799 152.354 70.5584L152.596 71.711C152.994 71.6276 153.329 71.5394 153.586 71.4431L153.172 70.3405ZM152.342 70.5612C152.014 70.6373 151.573 70.6808 151.004 70.6808V71.8584C151.623 71.8584 152.162 71.812 152.608 71.7082L152.342 70.5612ZM151.004 70.6808C150.192 70.6808 149.392 70.5068 148.6 70.152L148.119 71.2267C149.054 71.6457 150.017 71.8584 151.004 71.8584V70.6808ZM148.602 70.153C147.845 69.8105 147.215 69.2897 146.706 68.5789L145.748 69.2644C146.373 70.1369 147.164 70.7946 148.116 71.2258L148.602 70.153ZM146.708 68.5825C146.236 67.9121 145.979 67.04 145.979 65.9259H144.802C144.802 67.2228 145.103 68.3478 145.746 69.2608L146.708 68.5825ZM145.979 65.9259V45.3066H144.802V65.9259H145.979ZM157.792 70.9998H157.203V71.5886H157.792V70.9998ZM157.792 50.2725V49.6837H157.203V50.2725H157.792ZM160.868 50.2725H161.457V49.6837H160.868V50.2725ZM160.868 53.4032H160.28V53.992H160.868V53.4032ZM161.084 53.4032V53.992H161.495L161.637 53.6067L161.084 53.4032ZM163.135 50.9067L162.816 50.412L163.135 50.9067ZM168.155 50.0026H168.744V49.4697L168.214 49.4167L168.155 50.0026ZM168.155 53.2412L168.013 53.8125L168.744 53.9954V53.2412H168.155ZM167.413 53.1198L167.316 53.7006L167.324 53.7019L167.332 53.7029L167.413 53.1198ZM163.513 53.6596L163.789 54.1801L163.791 54.1789L163.513 53.6596ZM161.651 55.3868L161.151 55.0759L161.15 55.0776L161.651 55.3868ZM160.976 70.9998V71.5886H161.565V70.9998H160.976ZM158.381 70.9998V50.2725H157.203V70.9998H158.381ZM157.792 50.8613H160.868V49.6837H157.792V50.8613ZM160.28 50.2725V53.4032H161.457V50.2725H160.28ZM160.868 53.992H161.084V52.8144H160.868V53.992ZM161.637 53.6067C161.967 52.7104 162.564 51.9766 163.455 51.4014L162.816 50.412C161.728 51.1143 160.957 52.0448 160.532 53.1996L161.637 53.6067ZM163.455 51.4014C164.344 50.8275 165.347 50.5374 166.482 50.5374V49.3598C165.134 49.3598 163.906 49.7085 162.816 50.412L163.455 51.4014ZM166.482 50.5374C166.709 50.5374 166.996 50.5418 167.344 50.5507L167.374 49.3735C167.021 49.3644 166.723 49.3598 166.482 49.3598V50.5374ZM167.344 50.5507C167.691 50.5596 167.939 50.5727 168.097 50.5885L168.214 49.4167C168.012 49.3965 167.729 49.3826 167.374 49.3735L167.344 50.5507ZM167.567 50.0026V53.2412H168.744V50.0026H167.567ZM168.298 52.67C168.154 52.6339 167.873 52.5894 167.495 52.5366L167.332 53.7029C167.727 53.7581 167.941 53.7946 168.013 53.8125L168.298 52.67ZM167.51 52.539C167.097 52.4702 166.664 52.4365 166.212 52.4365V53.6141C166.606 53.6141 166.974 53.6434 167.316 53.7006L167.51 52.539ZM166.212 52.4365C165.12 52.4365 164.123 52.6664 163.236 53.1402L163.791 54.1789C164.487 53.807 165.289 53.6141 166.212 53.6141V52.4365ZM163.238 53.139C162.365 53.6006 161.666 54.2479 161.151 55.0759L162.151 55.6978C162.554 55.0504 163.096 54.5462 163.789 54.1801L163.238 53.139ZM161.15 55.0776C160.638 55.9077 160.388 56.8489 160.388 57.8833H161.565C161.565 57.0464 161.765 56.3233 162.152 55.6961L161.15 55.0776ZM160.388 57.8833V70.9998H161.565V57.8833H160.388ZM160.976 70.411H157.792V71.5886H160.976V70.411ZM174.795 70.0956L174.479 70.5928L174.481 70.5937L174.795 70.0956ZM171.502 66.3577L170.973 66.6163L170.974 66.6187L171.502 66.3577ZM171.502 55.09L170.974 54.8302L170.972 54.8326L171.502 55.09ZM174.795 51.3385L174.481 50.8405L174.479 50.8414L174.795 51.3385ZM184.632 51.3385L184.316 51.8357L184.318 51.8366L184.632 51.3385ZM187.925 55.09L187.395 55.3473L187.396 55.3497L187.925 55.09ZM187.925 66.3577L187.397 66.0968L187.396 66.0992L187.925 66.3577ZM184.632 70.0956L184.318 69.5976L184.316 69.5985L184.632 70.0956ZM183.229 67.4777L182.862 67.0166L183.229 67.4777ZM185.266 64.6034L185.818 64.8084L185.266 64.6034ZM185.266 56.8712L185.819 56.6677L185.266 56.8712ZM183.229 53.9699L183.597 53.511L183.229 53.9699ZM176.211 53.9699L175.843 53.511L176.211 53.9699ZM174.174 56.8712L173.621 56.6677L174.174 56.8712ZM174.174 64.6034L173.622 64.8084L174.174 64.6034ZM176.211 67.4777L176.578 67.0166L176.211 67.4777ZM179.72 70.8428C177.946 70.8428 176.416 70.422 175.109 69.5976L174.481 70.5937C175.998 71.5506 177.751 72.0204 179.72 72.0204V70.8428ZM175.11 69.5985C173.805 68.77 172.777 67.6089 172.03 66.0968L170.974 66.6187C171.81 68.3092 172.978 69.64 174.479 70.5928L175.11 69.5985ZM172.031 66.0992C171.295 64.5929 170.917 62.8134 170.917 60.7441H169.739C169.739 62.957 170.144 64.9198 170.973 66.6163L172.031 66.0992ZM170.917 60.7441C170.917 58.656 171.295 56.8626 172.032 55.3473L170.972 54.8326C170.144 56.5379 169.739 58.5139 169.739 60.7441H170.917ZM172.03 55.3497C172.778 53.8286 173.805 52.6637 175.11 51.8357L174.479 50.8414C172.977 51.7947 171.809 53.1307 170.974 54.8302L172.03 55.3497ZM175.109 51.8366C176.416 51.0122 177.946 50.5914 179.72 50.5914V49.4138C177.751 49.4138 175.998 49.8836 174.481 50.8405L175.109 51.8366ZM179.72 50.5914C181.494 50.5914 183.019 51.0122 184.316 51.8357L184.947 50.8414C183.438 49.8836 181.688 49.4138 179.72 49.4138V50.5914ZM184.318 51.8366C185.631 52.6644 186.657 53.8283 187.395 55.3473L188.454 54.8326C187.627 53.1309 186.458 51.7939 184.946 50.8405L184.318 51.8366ZM187.396 55.3497C188.141 56.8644 188.523 58.657 188.523 60.7441H189.701C189.701 58.513 189.292 56.5361 188.453 54.8302L187.396 55.3497ZM188.523 60.7441C188.523 62.8124 188.141 64.5911 187.397 66.0968L188.452 66.6187C189.291 64.9216 189.701 62.9579 189.701 60.7441H188.523ZM187.396 66.0992C186.658 67.6091 185.631 68.7693 184.318 69.5976L184.946 70.5937C186.457 69.6408 187.626 68.3089 188.454 66.6163L187.396 66.0992ZM184.316 69.5985C183.019 70.4219 181.494 70.8428 179.72 70.8428V72.0204C181.688 72.0204 183.438 71.5506 184.947 70.5928L184.316 69.5985ZM179.72 69.1596C181.245 69.1596 182.552 68.7667 183.595 67.9388L182.862 67.0166C182.07 67.6461 181.038 67.982 179.72 67.982V69.1596ZM183.595 67.9388C184.603 67.1379 185.343 66.0882 185.818 64.8084L184.714 64.3985C184.308 65.4937 183.689 66.3602 182.862 67.0166L183.595 67.9388ZM185.818 64.8084C186.285 63.5494 186.516 62.1929 186.516 60.7441H185.339C185.339 62.0661 185.128 63.2825 184.714 64.3985L185.818 64.8084ZM186.516 60.7441C186.516 59.2952 186.285 57.9347 185.819 56.6677L184.714 57.0748C185.128 58.2007 185.339 59.4221 185.339 60.7441H186.516ZM185.819 56.6677C185.344 55.3796 184.605 54.3211 183.597 53.511L182.86 54.4288C183.687 55.0941 184.307 55.9698 184.714 57.0748L185.819 56.6677ZM183.597 53.511C182.555 52.6728 181.247 52.2746 179.72 52.2746V53.4522C181.036 53.4522 182.067 53.7916 182.86 54.4288L183.597 53.511ZM179.72 52.2746C178.193 52.2746 176.885 52.6728 175.843 53.511L176.58 54.4288C177.373 53.7916 178.404 53.4522 179.72 53.4522V52.2746ZM175.843 53.511C174.835 54.3211 174.096 55.3796 173.621 56.6677L174.726 57.0748C175.133 55.9698 175.753 55.0941 176.58 54.4288L175.843 53.511ZM173.621 56.6677C173.155 57.9347 172.924 59.2952 172.924 60.7441H174.101C174.101 59.4221 174.312 58.2007 174.726 57.0748L173.621 56.6677ZM172.924 60.7441C172.924 62.1929 173.154 63.5494 173.622 64.8084L174.726 64.3985C174.312 63.2825 174.101 62.0661 174.101 60.7441H172.924ZM173.622 64.8084C174.097 66.0882 174.837 67.1379 175.845 67.9388L176.578 67.0166C175.751 66.3602 175.132 65.4937 174.726 64.3985L173.622 64.8084ZM175.845 67.9388C176.888 68.7667 178.195 69.1596 179.72 69.1596V67.982C178.402 67.982 177.37 67.6461 176.578 67.0166L175.845 67.9388Z"/></svg>