<svg width="70" height="70" viewBox="0 0 70 70" fill="none" xmlns="http://www.w3.org/2000/svg">
<path fill-rule="evenodd" clip-rule="evenodd" d="M35 64.1667C51.1083 64.1667 64.1666 51.1083 64.1666 35C64.1666 18.8917 51.1083 5.83334 35 5.83334C18.8917 5.83334 5.83331 18.8917 5.83331 35C5.83331 51.1083 18.8917 64.1667 35 64.1667Z" stroke="#F20C1F"/>
<path fill-rule="evenodd" clip-rule="evenodd" d="M35 61.25C35 61.25 46.6666 51.7045 46.6666 35C46.6666 18.2955 35 8.75 35 8.75C35 8.75 23.3333 18.2955 23.3333 35C23.3333 51.7045 35 61.25 35 61.25Z" stroke="#F20C1F"/>
<path d="M7.29165 26.25H62.7083" stroke="#F20C1F" stroke-linecap="round"/>
<path d="M7.29165 43.75H62.7083" stroke="#F20C1F" stroke-linecap="round"/>
</svg>
