<svg width="95" height="95" viewBox="0 0 95 95" fill="none" xmlns="http://www.w3.org/2000/svg">
<path d="M47.5 87.0833C25.6387 87.0833 7.91666 69.3612 7.91666 47.5C7.91666 25.6387 25.6387 7.91663 47.5 7.91663C69.3613 7.91663 87.0833 25.6387 87.0833 47.5C87.0593 69.3513 69.3513 87.0593 47.5 87.0833ZM43.5417 16.0787C30.5822 17.7176 19.959 27.1458 16.7925 39.8188C13.6259 52.4918 18.566 65.8087 29.2315 73.3506C39.8969 80.8925 54.0989 81.1115 64.9919 73.902L64.596 74.1831L64.9681 73.9258L65.2017 73.7635L65.455 73.5854L65.5183 73.5418L65.5539 73.5141L45.2556 53.2079C44.1527 52.0856 43.5368 50.5737 43.5417 49.0002V16.0787ZM54.7398 51.4583L71.4717 68.1902L71.4994 68.1585L71.5192 68.1348L71.4796 68.1783C75.563 63.466 78.1533 57.6462 78.9212 51.4583H54.7398ZM51.4583 16.0787V43.5416H78.9212C77.1142 29.1891 65.8108 17.8857 51.4583 16.0787Z" fill="#73020C"/>
</svg>
